<svg xmlns="http://www.w3.org/2000/svg" xmlns:xlink="http://www.w3.org/1999/xlink" width="3180" height="879" contentScriptType="application/ecmascript" contentStyleType="text/css" style="width:3180px;height:879px" preserveAspectRatio="none" version="1.1" viewBox="0 0 3180 879" zoomAndPan="magnify"><g><rect style="stroke:#444;stroke-width:1;stroke-dasharray:7,7" width="216" height="171" x="7" y="539" fill="#FFF"/><text x="71.5" y="555.852" fill="#444" font-family="sans-serif" font-size="16" font-weight="bold" lengthAdjust="spacingAndGlyphs" textLength="87">Cloud.gov</text><text x="84" y="570.764" fill="#444" font-family="sans-serif" font-size="12" font-weight="bold" lengthAdjust="spacingAndGlyphs" textLength="62">[System]</text><rect style="stroke:#444;stroke-width:1;stroke-dasharray:7,7" width="2057" height="737" x="893" y="7" fill="#FFF"/><text x="1792" y="23.852" fill="#444" font-family="sans-serif" font-size="16" font-weight="bold" lengthAdjust="spacingAndGlyphs" textLength="259">Vuls Prototype AWS Account</text><text x="1890.5" y="38.764" fill="#444" font-family="sans-serif" font-size="12" font-weight="bold" lengthAdjust="spacingAndGlyphs" textLength="62">[System]</text><rect style="stroke:#444;stroke-width:1;stroke-dasharray:7,7" width="232" height="206" x="94" y="242" fill="#FFF"/><text x="181" y="258.852" fill="#444" font-family="sans-serif" font-size="16" font-weight="bold" lengthAdjust="spacingAndGlyphs" textLength="58">Github</text><text x="179" y="273.764" fill="#444" font-family="sans-serif" font-size="12" font-weight="bold" lengthAdjust="spacingAndGlyphs" textLength="62">[System]</text><rect style="stroke:#3c7fc0;stroke-width:1.5" width="199" height="85.188" x="15.5" y="617" fill="#438DD5"/><text x="56.5" y="641.852" fill="#FFF" font-family="sans-serif" font-size="16" font-weight="bold" lengthAdjust="spacingAndGlyphs" textLength="117">App Instance</text><text x="35.5" y="656.764" fill="#FFF" font-family="sans-serif" font-size="12" font-style="italic" lengthAdjust="spacingAndGlyphs" textLength="159">[Javascript, Python, Shell]</text><text x="25.5" y="688.886" fill="#FFF" font-family="sans-serif" font-size="14" lengthAdjust="spacingAndGlyphs" textLength="179">App instance in Cloud.gov</text><rect style="stroke:#3c7fc0;stroke-width:1.5" width="216" height="101.484" x="1057" y="609" fill="#438DD5"/><text x="1088" y="633.852" fill="#FFF" font-family="sans-serif" font-size="16" font-weight="bold" lengthAdjust="spacingAndGlyphs" textLength="154">Vuls Reporting UI</text><text x="1084" y="648.764" fill="#FFF" font-family="sans-serif" font-size="12" font-style="italic" lengthAdjust="spacingAndGlyphs" textLength="162">[Golang, Javascript, HTML]</text><text x="1074.5" y="680.886" fill="#FFF" font-family="sans-serif" font-size="14" lengthAdjust="spacingAndGlyphs" textLength="177">An API serving report data</text><text x="1067" y="697.183" fill="#FFF" font-family="sans-serif" font-size="14" lengthAdjust="spacingAndGlyphs" textLength="196">and visualizing reporting info</text><rect style="stroke:#3c7fc0;stroke-width:1.5" width="190" height="117.781" x="1812" y="600.5" fill="#438DD5"/><text x="1846.5" y="625.352" fill="#FFF" font-family="sans-serif" font-size="16" font-weight="bold" lengthAdjust="spacingAndGlyphs" textLength="121">Vuls Scan API</text><text x="1880" y="640.264" fill="#FFF" font-family="sans-serif" font-size="12" font-style="italic" lengthAdjust="spacingAndGlyphs" textLength="54">[Golang]</text><text x="1822" y="672.386" fill="#FFF" font-family="sans-serif" font-size="14" lengthAdjust="spacingAndGlyphs" textLength="166">The API server exposing</text><text x="1824.5" y="688.683" fill="#FFF" font-family="sans-serif" font-size="14" lengthAdjust="spacingAndGlyphs" textLength="161">health and scan upload</text><text x="1872" y="704.98" fill="#FFF" font-family="sans-serif" font-size="14" lengthAdjust="spacingAndGlyphs" textLength="70">endpoints</text><rect style="stroke:#3c7fc0;stroke-width:1.5" width="210" height="152.703" x="2227" y="583" fill="#438DD5"/><text x="2251.5" y="607.852" fill="#FFF" font-family="sans-serif" font-size="16" font-weight="bold" lengthAdjust="spacingAndGlyphs" textLength="155">Vuls file store for</text><text x="2298.5" y="626.477" fill="#FFF" font-family="sans-serif" font-size="16" font-weight="bold" lengthAdjust="spacingAndGlyphs" textLength="67">reports</text><text x="2312.5" y="641.389" fill="#FFF" font-family="sans-serif" font-size="12" font-style="italic" lengthAdjust="spacingAndGlyphs" textLength="39">[JSON]</text><text x="2251" y="673.511" fill="#FFF" font-family="sans-serif" font-size="14" lengthAdjust="spacingAndGlyphs" textLength="158">A filesystem location to</text><text x="2263.5" y="689.808" fill="#FFF" font-family="sans-serif" font-size="14" lengthAdjust="spacingAndGlyphs" textLength="133">cache scan reports</text><text x="2237" y="706.105" fill="#FFF" font-family="sans-serif" font-size="14" lengthAdjust="spacingAndGlyphs" textLength="186">enhanced with vulnerability</text><text x="2305" y="722.401" fill="#FFF" font-family="sans-serif" font-size="14" lengthAdjust="spacingAndGlyphs" textLength="54">analysis</text><rect style="stroke:#3c7fc0;stroke-width:1.5" width="220" height="117.781" x="2011" y="85" fill="#438DD5"/><text x="2070.5" y="109.852" fill="#FFF" font-family="sans-serif" font-size="16" font-weight="bold" lengthAdjust="spacingAndGlyphs" textLength="101">CVE DB API</text><text x="2094" y="124.764" fill="#FFF" font-family="sans-serif" font-size="12" font-style="italic" lengthAdjust="spacingAndGlyphs" textLength="54">[Golang]</text><text x="2024.5" y="156.886" fill="#FFF" font-family="sans-serif" font-size="14" lengthAdjust="spacingAndGlyphs" textLength="189">Database to store 3rd party</text><text x="2021" y="173.183" fill="#FFF" font-family="sans-serif" font-size="14" lengthAdjust="spacingAndGlyphs" textLength="196">vulnerability data and subset</text><text x="2043.5" y="189.48" fill="#FFF" font-family="sans-serif" font-size="14" lengthAdjust="spacingAndGlyphs" textLength="155">of vulnerability analysis</text><path fill="#438DD5" d="M2472.5,606 C2472.5,596 2580,596 2580,596 C2580,596 2687.5,596 2687.5,606 L2687.5,712.7813 C2687.5,722.7813 2580,722.7813 2580,722.7813 C2580,722.7813 2472.5,722.7813 2472.5,712.7813 L2472.5,606" style="stroke:#3c7fc0;stroke-width:1.5"/><path fill="none" d="M2472.5,606 C2472.5,616 2580,616 2580,616 C2580,616 2687.5,616 2687.5,606" style="stroke:#3c7fc0;stroke-width:1.5"/><text x="2547.5" y="634.852" fill="#FFF" font-family="sans-serif" font-size="16" font-weight="bold" lengthAdjust="spacingAndGlyphs" textLength="65">CVE DB</text><text x="2555.5" y="649.764" fill="#FFF" font-family="sans-serif" font-size="12" font-style="italic" lengthAdjust="spacingAndGlyphs" textLength="49">[SQLite]</text><text x="2482.5" y="681.886" fill="#FFF" font-family="sans-serif" font-size="14" lengthAdjust="spacingAndGlyphs" textLength="191">Stores a normalized version</text><text x="2490.5" y="698.183" fill="#FFF" font-family="sans-serif" font-size="14" lengthAdjust="spacingAndGlyphs" textLength="175">of all business data for ad</text><text x="2498.5" y="714.48" fill="#FFF" font-family="sans-serif" font-size="14" lengthAdjust="spacingAndGlyphs" textLength="163">hoc reporting purposes</text><rect style="stroke:#3c7fc0;stroke-width:1.5" width="145" height="85.188" x="2562.5" y="101.5" fill="#438DD5"/><text x="2572.5" y="126.352" fill="#FFF" font-family="sans-serif" font-size="16" font-weight="bold" lengthAdjust="spacingAndGlyphs" textLength="125">Exploit DB API</text><text x="2608" y="141.264" fill="#FFF" font-family="sans-serif" font-size="12" font-style="italic" lengthAdjust="spacingAndGlyphs" textLength="54">[Golang]</text><text x="2587.5" y="173.386" fill="#FFF" font-family="sans-serif" font-size="14" lengthAdjust="spacingAndGlyphs" textLength="95">Exploit DB API</text><path fill="#438DD5" d="M2722.5,614.5 C2722.5,604.5 2832,604.5 2832,604.5 C2832,604.5 2941.5,604.5 2941.5,614.5 L2941.5,704.9844 C2941.5,714.9844 2832,714.9844 2832,714.9844 C2832,714.9844 2722.5,714.9844 2722.5,704.9844 L2722.5,614.5" style="stroke:#3c7fc0;stroke-width:1.5"/><path fill="none" d="M2722.5,614.5 C2722.5,624.5 2832,624.5 2832,624.5 C2832,624.5 2941.5,624.5 2941.5,614.5" style="stroke:#3c7fc0;stroke-width:1.5"/><text x="2787.5" y="643.352" fill="#FFF" font-family="sans-serif" font-size="16" font-weight="bold" lengthAdjust="spacingAndGlyphs" textLength="89">Exploit DB</text><text x="2807.5" y="658.264" fill="#FFF" font-family="sans-serif" font-size="12" font-style="italic" lengthAdjust="spacingAndGlyphs" textLength="49">[SQLite]</text><text x="2733.5" y="690.386" fill="#FFF" font-family="sans-serif" font-size="14" lengthAdjust="spacingAndGlyphs" textLength="193">DB with exploit-db.com data</text><text x="2732.5" y="706.683" fill="#FFF" font-family="sans-serif" font-size="14" lengthAdjust="spacingAndGlyphs" textLength="199">for Vuls to show PoC exploits</text><rect style="stroke:#3c7fc0;stroke-width:1.5" width="181" height="85.188" x="1505.5" y="101.5" fill="#438DD5"/><text x="1538" y="126.352" fill="#FFF" font-family="sans-serif" font-size="16" font-weight="bold" lengthAdjust="spacingAndGlyphs" textLength="116">GOST DB API</text><text x="1569" y="141.264" fill="#FFF" font-family="sans-serif" font-size="12" font-style="italic" lengthAdjust="spacingAndGlyphs" textLength="54">[Golang]</text><text x="1515.5" y="173.386" fill="#FFF" font-family="sans-serif" font-size="14" lengthAdjust="spacingAndGlyphs" textLength="161">Security Tracker DB API</text><path fill="#438DD5" d="M1557,606 C1557,596 1667,596 1667,596 C1667,596 1777,596 1777,606 L1777,712.7813 C1777,722.7813 1667,722.7813 1667,722.7813 C1667,722.7813 1557,722.7813 1557,712.7813 L1557,606" style="stroke:#3c7fc0;stroke-width:1.5"/><path fill="none" d="M1557,606 C1557,616 1667,616 1667,616 C1667,616 1777,616 1777,606" style="stroke:#3c7fc0;stroke-width:1.5"/><text x="1627" y="634.852" fill="#FFF" font-family="sans-serif" font-size="16" font-weight="bold" lengthAdjust="spacingAndGlyphs" textLength="80">GOST DB</text><text x="1642.5" y="649.764" fill="#FFF" font-family="sans-serif" font-size="12" font-style="italic" lengthAdjust="spacingAndGlyphs" textLength="49">[SQLite]</text><text x="1567" y="681.886" fill="#FFF" font-family="sans-serif" font-size="14" lengthAdjust="spacingAndGlyphs" textLength="200">Security Tracker DB, to cross</text><text x="1599" y="698.183" fill="#FFF" font-family="sans-serif" font-size="14" lengthAdjust="spacingAndGlyphs" textLength="132">-ref CVEs and send</text><text x="1625.5" y="714.48" fill="#FFF" font-family="sans-serif" font-size="14" lengthAdjust="spacingAndGlyphs" textLength="83">notifications</text><rect style="stroke:#3c7fc0;stroke-width:1.5" width="135" height="85.188" x="1029.5" y="101.5" fill="#438DD5"/><text x="1039.5" y="126.352" fill="#FFF" font-family="sans-serif" font-size="16" font-weight="bold" lengthAdjust="spacingAndGlyphs" textLength="115">OVAL DB API</text><text x="1070" y="141.264" fill="#FFF" font-family="sans-serif" font-size="12" font-style="italic" lengthAdjust="spacingAndGlyphs" textLength="54">[Golang]</text><text x="1054" y="173.386" fill="#FFF" font-family="sans-serif" font-size="14" lengthAdjust="spacingAndGlyphs" textLength="86">OVAL DB API</text><path fill="#438DD5" d="M1308.5,598 C1308.5,588 1415,588 1415,588 C1415,588 1521.5,588 1521.5,598 L1521.5,721.0781 C1521.5,731.0781 1415,731.0781 1415,731.0781 C1415,731.0781 1308.5,731.0781 1308.5,721.0781 L1308.5,598" style="stroke:#3c7fc0;stroke-width:1.5"/><path fill="none" d="M1308.5,598 C1308.5,608 1415,608 1415,608 C1415,608 1521.5,608 1521.5,598" style="stroke:#3c7fc0;stroke-width:1.5"/><text x="1375.5" y="626.852" fill="#FFF" font-family="sans-serif" font-size="16" font-weight="bold" lengthAdjust="spacingAndGlyphs" textLength="79">OVAL DB</text><text x="1390.5" y="641.764" fill="#FFF" font-family="sans-serif" font-size="12" font-style="italic" lengthAdjust="spacingAndGlyphs" textLength="49">[SQLite]</text><text x="1318.5" y="673.886" fill="#FFF" font-family="sans-serif" font-size="14" lengthAdjust="spacingAndGlyphs" textLength="189">DB for OVAL data for Alpine,</text><text x="1328.5" y="690.183" fill="#FFF" font-family="sans-serif" font-size="14" lengthAdjust="spacingAndGlyphs" textLength="169">Amazon, Debian, Oracle,</text><text x="1320.5" y="706.48" fill="#FFF" font-family="sans-serif" font-size="14" lengthAdjust="spacingAndGlyphs" textLength="185">RedHat, SUSE, and Ubuntu</text><text x="1397.5" y="722.776" fill="#FFF" font-family="sans-serif" font-size="14" lengthAdjust="spacingAndGlyphs" textLength="35">Linux</text><rect style="stroke:#3c7fc0;stroke-width:1.5" width="216" height="120.109" x="102" y="320" fill="#438DD5"/><text x="125" y="344.852" fill="#FFF" font-family="sans-serif" font-size="16" font-weight="bold" lengthAdjust="spacingAndGlyphs" textLength="164">Vuls CloudFoundry</text><text x="168" y="363.477" fill="#FFF" font-family="sans-serif" font-size="16" font-weight="bold" lengthAdjust="spacingAndGlyphs" textLength="84">Buildpack</text><text x="190" y="378.389" fill="#FFF" font-family="sans-serif" font-size="12" font-style="italic" lengthAdjust="spacingAndGlyphs" textLength="40">[Shell]</text><text x="112" y="410.511" fill="#FFF" font-family="sans-serif" font-size="14" lengthAdjust="spacingAndGlyphs" textLength="192">Repo for Vuls CloudFoundry</text><text x="176.5" y="426.808" fill="#FFF" font-family="sans-serif" font-size="14" lengthAdjust="spacingAndGlyphs" textLength="67">Buildpack</text><rect style="stroke:#073b6f;stroke-width:1.5" width="212" height="38.625" x="436" y="640" fill="#08427B"/><text x="446" y="664.852" fill="#FFF" font-family="sans-serif" font-size="16" font-weight="bold" lengthAdjust="spacingAndGlyphs" textLength="192">Application Developer</text><rect style="stroke:#073b6f;stroke-width:1.5" width="190" height="38.625" x="683" y="640" fill="#08427B"/><text x="693" y="664.852" fill="#FFF" font-family="sans-serif" font-size="16" font-weight="bold" lengthAdjust="spacingAndGlyphs" textLength="170">Cloud.gov Engineer</text><rect style="stroke:#073b6f;stroke-width:1.5" width="192" height="57.25" x="2977" y="631" fill="#08427B"/><text x="2987" y="655.852" fill="#FFF" font-family="sans-serif" font-size="16" font-weight="bold" lengthAdjust="spacingAndGlyphs" textLength="166">Cloud.gov Security</text><text x="3045" y="674.477" fill="#FFF" font-family="sans-serif" font-size="16" font-weight="bold" lengthAdjust="spacingAndGlyphs" textLength="56">Offical</text><path id="app&lt;-dev" fill="none" d="M219.6721,659.5 C285.4044,659.5 369.9227,659.5 435.9206,659.5" style="stroke:#666;stroke-width:1"/><polygon fill="#666" points="214.574 659.5 223.574 663.5 219.574 659.5 223.574 655.5 214.574 659.5" style="stroke:#666;stroke-width:1"/><text x="232.75" y="623.567" fill="#666" font-family="sans-serif" font-size="13" font-weight="bold" lengthAdjust="spacingAndGlyphs" textLength="180">Deploy app instances to</text><text x="289.25" y="638.7" fill="#666" font-family="sans-serif" font-size="13" font-weight="bold" lengthAdjust="spacingAndGlyphs" textLength="72">cloud.gov</text><text x="249.75" y="652.904" fill="#666" font-family="sans-serif" font-size="12" font-style="italic" lengthAdjust="spacingAndGlyphs" textLength="151">[CloudFoundry CLI tools]</text><path id="vuls_cf_buildpack&lt;-cgeng" fill="none" d="M322.8687,403.1495 C419.5896,426.6277 559.7038,469.5522 666,539 C708.0822,566.4941 745.2388,613.1389 764.3522,639.6069" style="stroke:#666;stroke-width:1"/><polygon fill="#666" points="318.008 401.977 325.819 407.976 322.868 403.149 327.695 400.199 318.008 401.977" style="stroke:#666;stroke-width:1"/><text x="644" y="483.067" fill="#666" font-family="sans-serif" font-size="13" font-weight="bold" lengthAdjust="spacingAndGlyphs" textLength="144">Cloud.gov engineer</text><text x="651" y="498.2" fill="#666" font-family="sans-serif" font-size="13" font-weight="bold" lengthAdjust="spacingAndGlyphs" textLength="130">adapts buildpack</text><text x="676" y="513.332" fill="#666" font-family="sans-serif" font-size="13" font-weight="bold" lengthAdjust="spacingAndGlyphs" textLength="85">accordingly</text><text x="673" y="527.537" fill="#666" font-family="sans-serif" font-size="12" font-style="italic" lengthAdjust="spacingAndGlyphs" textLength="91">[Git via HTTPS]</text><path id="vuls_cf_buildpack-&gt;app" fill="none" d="M189.5034,440.3032 C172.0482,491.6581 147.308,564.4464 131.2082,611.8138" style="stroke:#666;stroke-width:1"/><polygon fill="#666" points="129.581 616.602 136.264 609.368 131.19 611.868 128.69 606.794 129.581 616.602" style="stroke:#666;stroke-width:1"/><text x="181" y="490.567" fill="#666" font-family="sans-serif" font-size="13" font-weight="bold" lengthAdjust="spacingAndGlyphs" textLength="139">Retrieve buildpack</text><text x="221" y="505.7" fill="#666" font-family="sans-serif" font-size="13" font-weight="bold" lengthAdjust="spacingAndGlyphs" textLength="64">contents</text><text x="207.5" y="519.904" fill="#666" font-family="sans-serif" font-size="12" font-style="italic" lengthAdjust="spacingAndGlyphs" textLength="91">[Git via HTTPS]</text><path id="app-&gt;vuls_api" fill="none" d="M200.0762,616.9331 C259.7477,589.3058 342.2619,555.4829 419,539 C568.4795,506.8927 1656.5219,474.2016 1795,539 C1822.0322,551.6492 1845.6571,574.0493 1864.1523,596.1323" style="stroke:#666;stroke-width:1"/><polygon fill="#666" points="1867.546 600.25 1864.908 590.76 1864.366 596.391 1858.735 595.848 1867.546 600.25" style="stroke:#666;stroke-width:1"/><text x="1077" y="490.567" fill="#666" font-family="sans-serif" font-size="13" font-weight="bold" lengthAdjust="spacingAndGlyphs" textLength="147">Send OS and library</text><text x="1064" y="505.7" fill="#666" font-family="sans-serif" font-size="13" font-weight="bold" lengthAdjust="spacingAndGlyphs" textLength="178">manifests Vuls Scan API</text><text x="1121" y="519.904" fill="#666" font-family="sans-serif" font-size="12" font-style="italic" lengthAdjust="spacingAndGlyphs" textLength="64">[HTTP API]</text><path id="vuls_api-&gt;vuls_reports_dir" fill="none" d="M2002.1137,659.5 C2067.0985,659.5 2153.4266,659.5 2221.471,659.5" style="stroke:#666;stroke-width:1"/><polygon fill="#666" points="2226.751 659.5 2217.751 655.5 2221.751 659.5 2217.751 663.5 2226.751 659.5" style="stroke:#666;stroke-width:1"/><text x="2020.5" y="623.567" fill="#666" font-family="sans-serif" font-size="13" font-weight="bold" lengthAdjust="spacingAndGlyphs" textLength="183">Cache analyzed scans to</text><text x="2076.5" y="638.7" fill="#666" font-family="sans-serif" font-size="13" font-weight="bold" lengthAdjust="spacingAndGlyphs" textLength="76">filesystem</text><text x="2061.5" y="652.904" fill="#666" font-family="sans-serif" font-size="12" font-style="italic" lengthAdjust="spacingAndGlyphs" textLength="106">[System FS calls]</text><path id="vuls_repo-&gt;vuls_reports_dir" fill="none" d="M1184.3161,608.9839 C1201.4674,571.9595 1230.4666,524.4068 1273,502 C1362.8876,454.6467 1657.4506,458.8063 2020,539 C2089.2076,554.3083 2163.353,582.4153 2221.9919,607.6349" style="stroke:#666;stroke-width:1"/><polygon fill="#666" points="2226.9 609.755 2220.224 602.514 2222.31 607.772 2217.052 609.859 2226.9 609.755" style="stroke:#666;stroke-width:1"/><text x="1284.5" y="483.067" fill="#666" font-family="sans-serif" font-size="13" font-weight="bold" lengthAdjust="spacingAndGlyphs" textLength="166">Serve static assets for</text><text x="1274" y="498.2" fill="#666" font-family="sans-serif" font-size="13" font-weight="bold" lengthAdjust="spacingAndGlyphs" textLength="187">frontend and report data</text><text x="1345" y="513.332" fill="#666" font-family="sans-serif" font-size="13" font-weight="bold" lengthAdjust="spacingAndGlyphs" textLength="50">via API</text><text x="1282" y="527.537" fill="#666" font-family="sans-serif" font-size="12" font-style="italic" lengthAdjust="spacingAndGlyphs" textLength="176">[Golang DB and FS libraries]</text><path id="cve_db_api-&gt;vuls_api" fill="none" d="M2043.2188,203.1493 C2031.4237,214.9522 2020.4075,228.0515 2012,242 C2002.7927,257.2756 1948.9231,481.9571 1922.1256,595.2204" style="stroke:#666;stroke-width:1"/><polygon fill="#666" points="1920.949 600.197 1926.913 592.359 1922.1 595.331 1919.128 590.518 1920.949 600.197" style="stroke:#666;stroke-width:1"/><text x="2013" y="370.067" fill="#666" font-family="sans-serif" font-size="13" font-weight="bold" lengthAdjust="spacingAndGlyphs" textLength="200">Respond with CVE data for</text><text x="2092" y="385.2" fill="#666" font-family="sans-serif" font-size="13" font-weight="bold" lengthAdjust="spacingAndGlyphs" textLength="42">query</text><text x="2092.5" y="399.404" fill="#666" font-family="sans-serif" font-size="12" font-style="italic" lengthAdjust="spacingAndGlyphs" textLength="41">[HTTP]</text><path id="exploit_db_api-&gt;vuls_api" fill="none" d="M2562.2351,184.4676 C2540.7269,199.8178 2519.171,219.1933 2505,242 C2455.8215,321.1476 2526.6105,377.2241 2466,448 C2387.4561,539.7169 2323.0107,496.4591 2210,539 C2141.9762,564.6064 2065.9707,594.8374 2007.0995,618.6135" style="stroke:#666;stroke-width:1"/><polygon fill="#666" points="2002.176 620.603 2012.019 620.94 2006.812 618.73 2009.021 613.523 2002.176 620.603" style="stroke:#666;stroke-width:1"/><text x="2506" y="370.067" fill="#666" font-family="sans-serif" font-size="13" font-weight="bold" lengthAdjust="spacingAndGlyphs" textLength="182">Respond with Exploit DB</text><text x="2546" y="385.2" fill="#666" font-family="sans-serif" font-size="13" font-weight="bold" lengthAdjust="spacingAndGlyphs" textLength="107">data for query</text><text x="2579" y="399.404" fill="#666" font-family="sans-serif" font-size="12" font-style="italic" lengthAdjust="spacingAndGlyphs" textLength="41">[HTTP]</text><path id="gost_db_api-&gt;vuls_api" fill="none" d="M1640.0143,186.9025 C1654.6736,203.0665 1670.0409,222.3242 1681,242 C1746.4612,359.5279 1676.8227,434.9344 1771,531 C1778.8712,539.029 1785.5452,532.9151 1795,539 C1818.8535,554.3515 1841.0561,575.9284 1859.2985,596.5897" style="stroke:#666;stroke-width:1"/><polygon fill="#666" points="1862.658 600.435 1859.749 591.026 1859.369 596.67 1853.725 596.289 1862.658 600.435" style="stroke:#666;stroke-width:1"/><text x="1733.5" y="370.067" fill="#666" font-family="sans-serif" font-size="13" font-weight="bold" lengthAdjust="spacingAndGlyphs" textLength="165">Respond with Security</text><text x="1722" y="385.2" fill="#666" font-family="sans-serif" font-size="13" font-weight="bold" lengthAdjust="spacingAndGlyphs" textLength="193">Tracker DB data for query</text><text x="1798" y="399.404" fill="#666" font-family="sans-serif" font-size="12" font-style="italic" lengthAdjust="spacingAndGlyphs" textLength="41">[HTTP]</text><path id="oval_db_api-&gt;vuls_api" fill="none" d="M1136.8518,186.929 C1150.4112,203.2434 1164.7206,222.5916 1175,242 C1178.9353,249.4302 1258.266,525.9653 1265,531 C1288.5848,548.6332 1768.0938,527.0322 1795,539 C1822.6292,551.2894 1846.5619,574.0243 1865.1298,596.4629" style="stroke:#666;stroke-width:1"/><polygon fill="#666" points="1868.298 600.352 1865.715 590.848 1865.14 596.476 1859.513 595.901 1868.298 600.352" style="stroke:#666;stroke-width:1"/><text x="1237" y="370.067" fill="#666" font-family="sans-serif" font-size="13" font-weight="bold" lengthAdjust="spacingAndGlyphs" textLength="171">Respond with OVAL DB</text><text x="1271.5" y="385.2" fill="#666" font-family="sans-serif" font-size="13" font-weight="bold" lengthAdjust="spacingAndGlyphs" textLength="107">data for query</text><text x="1304.5" y="399.404" fill="#666" font-family="sans-serif" font-size="12" font-style="italic" lengthAdjust="spacingAndGlyphs" textLength="41">[HTTP]</text><path id="cve_db_api-&gt;cve_db" fill="none" d="M2188.1943,203.2215 C2199.2332,215.2354 2209.7449,228.3883 2218,242 C2267.854,324.2037 2222.3668,374.2151 2284,448 C2339.1914,514.0731 2385.3373,488.4148 2455,539 C2476.4944,554.6081 2498.0029,573.7496 2516.9688,592.1423" style="stroke:#666;stroke-width:1"/><polygon fill="#666" points="2520.727 595.81 2517.079 586.661 2517.149 592.318 2511.492 592.387 2520.727 595.81" style="stroke:#666;stroke-width:1"/><text x="2285" y="377.567" fill="#666" font-family="sans-serif" font-size="13" font-weight="bold" lengthAdjust="spacingAndGlyphs" textLength="176">Read DB for query data</text><text x="2285" y="391.772" fill="#666" font-family="sans-serif" font-size="12" font-style="italic" lengthAdjust="spacingAndGlyphs" textLength="176">[Golang DB and FS libraries]</text><path id="exploit_db_api-&gt;exploit_db" fill="none" d="M2668.2793,186.6973 C2680.0993,203.2958 2692.7516,222.8921 2702,242 C2760.5314,362.9304 2800.2641,516.1862 2819.2171,599.2806" style="stroke:#666;stroke-width:1"/><polygon fill="#666" points="2820.325 604.162 2822.234 594.5 2819.218 599.286 2814.432 596.271 2820.325 604.162" style="stroke:#666;stroke-width:1"/><text x="2779" y="377.567" fill="#666" font-family="sans-serif" font-size="13" font-weight="bold" lengthAdjust="spacingAndGlyphs" textLength="176">Read DB for query data</text><text x="2779" y="391.772" fill="#666" font-family="sans-serif" font-size="12" font-style="italic" lengthAdjust="spacingAndGlyphs" textLength="176">[Golang DB and FS libraries]</text><path id="gost_db_api-&gt;gost_db" fill="none" d="M1539.4224,186.5723 C1523.2368,202.0488 1507.649,220.967 1499,242 C1464.1802,326.6759 1468.8444,361.5531 1499,448 C1518.0772,502.6884 1557.8542,553.8394 1593.9155,592.1356" style="stroke:#666;stroke-width:1"/><polygon fill="#666" points="1597.393 595.801 1594.101 586.519 1593.952 592.174 1588.297 592.024 1597.393 595.801" style="stroke:#666;stroke-width:1"/><text x="1500" y="377.567" fill="#666" font-family="sans-serif" font-size="13" font-weight="bold" lengthAdjust="spacingAndGlyphs" textLength="176">Read DB for query data</text><text x="1500" y="391.772" fill="#666" font-family="sans-serif" font-size="12" font-style="italic" lengthAdjust="spacingAndGlyphs" textLength="176">[Golang DB and FS libraries]</text><path id="oval_db_api-&gt;oval_db" fill="none" d="M1046.7922,186.7287 C961.563,264.1408 807.1013,428.9984 907,531 C921.9303,546.2445 1271.313,530.7701 1291,539 C1315.0174,549.0401 1336.992,566.1053 1355.5518,584.2841" style="stroke:#666;stroke-width:1"/><polygon fill="#666" points="1359.218 587.933 1355.661 578.749 1355.674 584.406 1350.017 584.419 1359.218 587.933" style="stroke:#666;stroke-width:1"/><text x="990" y="377.567" fill="#666" font-family="sans-serif" font-size="13" font-weight="bold" lengthAdjust="spacingAndGlyphs" textLength="176">Read DB for query data</text><text x="990" y="391.772" fill="#666" font-family="sans-serif" font-size="12" font-style="italic" lengthAdjust="spacingAndGlyphs" textLength="176">[Golang DB and FS libraries]</text><path id="vuls_repo&lt;-dev" fill="none" d="M1139.3473,604.0892 C1121.3552,572.2941 1093.9834,535.1779 1057.5,517 C979.5076,478.1402 745.1765,502.6133 666,539 C616.9035,561.563 575.5452,611.9701 555.3159,639.9108" style="stroke:#666;stroke-width:1"/><polygon fill="#666" points="1141.934 608.739 1141.054 598.929 1139.503 604.369 1134.063 602.818 1141.934 608.739" style="stroke:#666;stroke-width:1"/><text x="915" y="498.067" fill="#666" font-family="sans-serif" font-size="13" font-weight="bold" lengthAdjust="spacingAndGlyphs" textLength="136">Read scan reports</text><text x="909.5" y="512.271" fill="#666" font-family="sans-serif" font-size="12" font-style="italic" lengthAdjust="spacingAndGlyphs" textLength="147">[Web browser via HTTP]</text><path id="vuls_repo&lt;-cgeng" fill="none" d="M1051.76,659.5 C995.0461,659.5 927.1522,659.5 873.1665,659.5" style="stroke:#666;stroke-width:1"/><polygon fill="#666" points="1056.864 659.5 1047.864 655.5 1051.864 659.5 1047.864 663.5 1056.864 659.5" style="stroke:#666;stroke-width:1"/><text x="897" y="638.567" fill="#666" font-family="sans-serif" font-size="13" font-weight="bold" lengthAdjust="spacingAndGlyphs" textLength="136">Read scan reports</text><text x="891.5" y="652.771" fill="#666" font-family="sans-serif" font-size="12" font-style="italic" lengthAdjust="spacingAndGlyphs" textLength="147">[Web browser via HTTP]</text><path id="vuls_repo&lt;-cgisso" fill="none" d="M1206.3735,604.8557 C1228.4998,580.0378 1257.9785,553.1209 1291,539 C1490.4189,453.7231 1561.668,521.8901 1778.5,517 C2214.8337,507.1595 2873.2913,501.6735 2958,539 C3001.1347,558.0071 3035.9623,601.6618 3055.5741,630.8713" style="stroke:#666;stroke-width:1"/><polygon fill="#666" points="1202.886 608.819 1211.835 604.705 1206.189 605.065 1205.829 599.42 1202.886 608.819" style="stroke:#666;stroke-width:1"/><text x="1785" y="498.067" fill="#666" font-family="sans-serif" font-size="13" font-weight="bold" lengthAdjust="spacingAndGlyphs" textLength="136">Read scan reports</text><text x="1779.5" y="512.271" fill="#666" font-family="sans-serif" font-size="12" font-style="italic" lengthAdjust="spacingAndGlyphs" textLength="147">[Web browser via HTTP]</text><rect style="stroke:#000;stroke-width:1" width="199" height="111.781" x="2954" y="757" fill="#DDD" rx="5" ry="5"/><text x="3035" y="776.995" fill="#000" font-family="sans-serif" font-size="14" font-weight="bold" lengthAdjust="spacingAndGlyphs" textLength="39">Type</text><rect style="stroke:none;stroke-width:1" width="70" height="16.297" x="2960" y="780.297" fill="#08427B"/><text x="3034" y="793.292" fill="#000" font-family="sans-serif" font-size="14" lengthAdjust="spacingAndGlyphs" textLength="49">person</text><rect style="stroke:none;stroke-width:1" width="70" height="16.297" x="2960" y="796.594" fill="#686868"/><text x="3034" y="809.589" fill="#000" font-family="sans-serif" font-size="14" lengthAdjust="spacingAndGlyphs" textLength="108">external person</text><rect style="stroke:none;stroke-width:1" width="70" height="16.297" x="2960" y="812.891" fill="#1168BD"/><text x="3034" y="825.886" fill="#000" font-family="sans-serif" font-size="14" lengthAdjust="spacingAndGlyphs" textLength="50">system</text><rect style="stroke:none;stroke-width:1" width="70" height="16.297" x="2960" y="829.188" fill="#999"/><text x="3034" y="842.183" fill="#000" font-family="sans-serif" font-size="14" lengthAdjust="spacingAndGlyphs" textLength="109">external system</text><rect style="stroke:none;stroke-width:1" width="70" height="16.297" x="2960" y="845.484" fill="#438DD5"/><text x="3034" y="858.48" fill="#000" font-family="sans-serif" font-size="14" lengthAdjust="spacingAndGlyphs" textLength="65">container</text><line style="stroke:#000;stroke-width:1" x1="2960" x2="3147" y1="764" y2="764"/><line style="stroke:#000;stroke-width:1" x1="2960" x2="3147" y1="780.297" y2="780.297"/><line style="stroke:#000;stroke-width:1" x1="2960" x2="3147" y1="796.594" y2="796.594"/><line style="stroke:#000;stroke-width:1" x1="2960" x2="3147" y1="812.891" y2="812.891"/><line style="stroke:#000;stroke-width:1" x1="2960" x2="3147" y1="829.188" y2="829.188"/><line style="stroke:#000;stroke-width:1" x1="2960" x2="3147" y1="845.484" y2="845.484"/><line style="stroke:#000;stroke-width:1" x1="2960" x2="3147" y1="861.781" y2="861.781"/><line style="stroke:#000;stroke-width:1" x1="2960" x2="2960" y1="764" y2="861.781"/><line style="stroke:#000;stroke-width:1" x1="3030" x2="3030" y1="764" y2="861.781"/><line style="stroke:#000;stroke-width:1" x1="3147" x2="3147" y1="764" y2="861.781"/></g></svg>