<svg xmlns="http://www.w3.org/2000/svg" xmlns:xlink="http://www.w3.org/1999/xlink" width="1318" height="1103" contentScriptType="application/ecmascript" contentStyleType="text/css" style="width:1318px;height:1103px" preserveAspectRatio="none" version="1.1" viewBox="0 0 1318 1103" zoomAndPan="magnify"><defs><filter id="f1t7ya5mjpv474" width="300%" height="300%" x="-1" y="-1"><feGaussianBlur result="blurOut" stdDeviation="2"/><feColorMatrix in="blurOut" result="blurOut2" type="matrix" values="0 0 0 0 0 0 0 0 0 0 0 0 0 0 0 0 0 0 .4 0"/><feOffset dx="4" dy="4" in="blurOut2" result="blurOut3"/><feBlend in="SourceGraphic" in2="blurOut3" mode="normal"/></filter></defs><g><line style="stroke:#a80036;stroke-width:1;stroke-dasharray:5,5" x1="65" x2="65" y1="86.297" y2="1015.805"/><line style="stroke:#a80036;stroke-width:1;stroke-dasharray:5,5" x1="205" x2="205" y1="86.297" y2="1015.805"/><line style="stroke:#a80036;stroke-width:1;stroke-dasharray:5,5" x1="347" x2="347" y1="86.297" y2="1015.805"/><line style="stroke:#a80036;stroke-width:1;stroke-dasharray:5,5" x1="477" x2="477" y1="86.297" y2="1015.805"/><line style="stroke:#a80036;stroke-width:1;stroke-dasharray:5,5" x1="591" x2="591" y1="86.297" y2="1015.805"/><line style="stroke:#a80036;stroke-width:1;stroke-dasharray:5,5" x1="710" x2="710" y1="86.297" y2="1015.805"/><line style="stroke:#a80036;stroke-width:1;stroke-dasharray:5,5" x1="828" x2="828" y1="86.297" y2="1015.805"/><line style="stroke:#a80036;stroke-width:1;stroke-dasharray:5,5" x1="996" x2="996" y1="86.297" y2="1015.805"/><line style="stroke:#a80036;stroke-width:1;stroke-dasharray:5,5" x1="1174" x2="1174" y1="86.297" y2="1015.805"/><line style="stroke:#a80036;stroke-width:1;stroke-dasharray:5,5" x1="1285" x2="1285" y1="86.297" y2="1015.805"/><text x="8" y="82.995" fill="#000" font-family="sans-serif" font-size="14" lengthAdjust="spacingAndGlyphs" textLength="109">App Developer</text><ellipse cx="65.5" cy="13" fill="#FEFECE" filter="url(#f1t7ya5mjpv474)" rx="8" ry="8" style="stroke:#a80036;stroke-width:2"/><path fill="none" d="M65.5,21 L65.5,48 M52.5,29 L78.5,29 M65.5,48 L52.5,63 M65.5,48 L78.5,63" filter="url(#f1t7ya5mjpv474)" style="stroke:#a80036;stroke-width:2"/><text x="8" y="1027.8" fill="#000" font-family="sans-serif" font-size="14" lengthAdjust="spacingAndGlyphs" textLength="109">App Developer</text><ellipse cx="65.5" cy="1041.102" fill="#FEFECE" filter="url(#f1t7ya5mjpv474)" rx="8" ry="8" style="stroke:#a80036;stroke-width:2"/><path fill="none" d="M65.5,1049.1016 L65.5,1076.1016 M52.5,1057.1016 L78.5,1057.1016 M65.5,1076.1016 L52.5,1091.1016 M65.5,1076.1016 L78.5,1091.1016" filter="url(#f1t7ya5mjpv474)" style="stroke:#a80036;stroke-width:2"/><text x="133" y="82.995" fill="#000" font-family="sans-serif" font-size="14" lengthAdjust="spacingAndGlyphs" textLength="139">Cloud.gov Engineer</text><ellipse cx="205.5" cy="13" fill="#FEFECE" filter="url(#f1t7ya5mjpv474)" rx="8" ry="8" style="stroke:#a80036;stroke-width:2"/><path fill="none" d="M205.5,21 L205.5,48 M192.5,29 L218.5,29 M205.5,48 L192.5,63 M205.5,48 L218.5,63" filter="url(#f1t7ya5mjpv474)" style="stroke:#a80036;stroke-width:2"/><text x="133" y="1027.8" fill="#000" font-family="sans-serif" font-size="14" lengthAdjust="spacingAndGlyphs" textLength="139">Cloud.gov Engineer</text><ellipse cx="205.5" cy="1041.102" fill="#FEFECE" filter="url(#f1t7ya5mjpv474)" rx="8" ry="8" style="stroke:#a80036;stroke-width:2"/><path fill="none" d="M205.5,1049.1016 L205.5,1076.1016 M192.5,1057.1016 L218.5,1057.1016 M205.5,1076.1016 L192.5,1091.1016 M205.5,1076.1016 L218.5,1091.1016" filter="url(#f1t7ya5mjpv474)" style="stroke:#a80036;stroke-width:2"/><text x="288" y="82.995" fill="#000" font-family="sans-serif" font-size="14" lengthAdjust="spacingAndGlyphs" textLength="113">Portfolio Owner</text><ellipse cx="347.5" cy="13" fill="#FEFECE" filter="url(#f1t7ya5mjpv474)" rx="8" ry="8" style="stroke:#a80036;stroke-width:2"/><path fill="none" d="M347.5,21 L347.5,48 M334.5,29 L360.5,29 M347.5,48 L334.5,63 M347.5,48 L360.5,63" filter="url(#f1t7ya5mjpv474)" style="stroke:#a80036;stroke-width:2"/><text x="288" y="1027.8" fill="#000" font-family="sans-serif" font-size="14" lengthAdjust="spacingAndGlyphs" textLength="113">Portfolio Owner</text><ellipse cx="347.5" cy="1041.102" fill="#FEFECE" filter="url(#f1t7ya5mjpv474)" rx="8" ry="8" style="stroke:#a80036;stroke-width:2"/><path fill="none" d="M347.5,1049.1016 L347.5,1076.1016 M334.5,1057.1016 L360.5,1057.1016 M347.5,1076.1016 L334.5,1091.1016 M347.5,1076.1016 L360.5,1091.1016" filter="url(#f1t7ya5mjpv474)" style="stroke:#a80036;stroke-width:2"/><text x="417" y="82.995" fill="#000" font-family="sans-serif" font-size="14" lengthAdjust="spacingAndGlyphs" textLength="114">Security Official</text><ellipse cx="477" cy="13" fill="#FEFECE" filter="url(#f1t7ya5mjpv474)" rx="8" ry="8" style="stroke:#a80036;stroke-width:2"/><path fill="none" d="M477,21 L477,48 M464,29 L490,29 M477,48 L464,63 M477,48 L490,63" filter="url(#f1t7ya5mjpv474)" style="stroke:#a80036;stroke-width:2"/><text x="417" y="1027.8" fill="#000" font-family="sans-serif" font-size="14" lengthAdjust="spacingAndGlyphs" textLength="114">Security Official</text><ellipse cx="477" cy="1041.102" fill="#FEFECE" filter="url(#f1t7ya5mjpv474)" rx="8" ry="8" style="stroke:#a80036;stroke-width:2"/><path fill="none" d="M477,1049.1016 L477,1076.1016 M464,1057.1016 L490,1057.1016 M477,1076.1016 L464,1091.1016 M477,1076.1016 L490,1091.1016" filter="url(#f1t7ya5mjpv474)" style="stroke:#a80036;stroke-width:2"/><rect style="stroke:#a80036;stroke-width:1.5" width="85" height="30.297" x="547" y="51" fill="#FEFECE" filter="url(#f1t7ya5mjpv474)"/><text x="554" y="70.995" fill="#000" font-family="sans-serif" font-size="14" lengthAdjust="spacingAndGlyphs" textLength="71">Cloud.gov</text><rect style="stroke:#a80036;stroke-width:1.5" width="85" height="30.297" x="547" y="1014.805" fill="#FEFECE" filter="url(#f1t7ya5mjpv474)"/><text x="554" y="1034.8" fill="#000" font-family="sans-serif" font-size="14" lengthAdjust="spacingAndGlyphs" textLength="71">Cloud.gov</text><rect style="stroke:#a80036;stroke-width:1.5" width="63" height="30.297" x="677" y="51" fill="#FEFECE" filter="url(#f1t7ya5mjpv474)"/><text x="684" y="70.995" fill="#000" font-family="sans-serif" font-size="14" lengthAdjust="spacingAndGlyphs" textLength="49">Github</text><rect style="stroke:#a80036;stroke-width:1.5" width="63" height="30.297" x="677" y="1014.805" fill="#FEFECE" filter="url(#f1t7ya5mjpv474)"/><text x="684" y="1034.8" fill="#000" font-family="sans-serif" font-size="14" lengthAdjust="spacingAndGlyphs" textLength="49">Github</text><rect style="stroke:#a80036;stroke-width:1.5" width="144" height="30.297" x="754" y="51" fill="#FEFECE" filter="url(#f1t7ya5mjpv474)"/><text x="761" y="70.995" fill="#000" font-family="sans-serif" font-size="14" lengthAdjust="spacingAndGlyphs" textLength="130">Vuls Repo UI &amp; API</text><rect style="stroke:#a80036;stroke-width:1.5" width="144" height="30.297" x="754" y="1014.805" fill="#FEFECE" filter="url(#f1t7ya5mjpv474)"/><text x="761" y="1034.8" fill="#000" font-family="sans-serif" font-size="14" lengthAdjust="spacingAndGlyphs" textLength="130">Vuls Repo UI &amp; API</text><rect style="stroke:#a80036;stroke-width:1.5" width="165" height="30.297" x="912" y="51" fill="#FEFECE" filter="url(#f1t7ya5mjpv474)"/><text x="919" y="70.995" fill="#000" font-family="sans-serif" font-size="14" lengthAdjust="spacingAndGlyphs" textLength="151">Vuls Scan API Service</text><rect style="stroke:#a80036;stroke-width:1.5" width="165" height="30.297" x="912" y="1014.805" fill="#FEFECE" filter="url(#f1t7ya5mjpv474)"/><text x="919" y="1034.8" fill="#000" font-family="sans-serif" font-size="14" lengthAdjust="spacingAndGlyphs" textLength="151">Vuls Scan API Service</text><rect style="stroke:#a80036;stroke-width:1.5" width="163" height="30.297" x="1091" y="51" fill="#FEFECE" filter="url(#f1t7ya5mjpv474)"/><text x="1098" y="70.995" fill="#000" font-family="sans-serif" font-size="14" lengthAdjust="spacingAndGlyphs" textLength="149">Vuls Vulnerability DB</text><rect style="stroke:#a80036;stroke-width:1.5" width="163" height="30.297" x="1091" y="1014.805" fill="#FEFECE" filter="url(#f1t7ya5mjpv474)"/><text x="1098" y="1034.8" fill="#000" font-family="sans-serif" font-size="14" lengthAdjust="spacingAndGlyphs" textLength="149">Vuls Vulnerability DB</text><rect style="stroke:#a80036;stroke-width:1.5" width="31" height="30.297" x="1268" y="51" fill="#FEFECE" filter="url(#f1t7ya5mjpv474)"/><text x="1275" y="70.995" fill="#000" font-family="sans-serif" font-size="14" lengthAdjust="spacingAndGlyphs" textLength="17">ce</text><rect style="stroke:#a80036;stroke-width:1.5" width="31" height="30.297" x="1268" y="1014.805" fill="#FEFECE" filter="url(#f1t7ya5mjpv474)"/><text x="1275" y="1034.8" fill="#000" font-family="sans-serif" font-size="14" lengthAdjust="spacingAndGlyphs" textLength="17">ce</text><polygon fill="#A80036" points="579.5 143.695 589.5 147.695 579.5 151.695 583.5 147.695" style="stroke:#a80036;stroke-width:1"/><line style="stroke:#a80036;stroke-width:1" x1="65.5" x2="585.5" y1="147.695" y2="147.695"/><text x="72.5" y="112.364" fill="#000" font-family="sans-serif" font-size="13" lengthAdjust="spacingAndGlyphs" textLength="73">Deploy app</text><text x="72.5" y="127.497" fill="#000" font-family="sans-serif" font-size="13" lengthAdjust="spacingAndGlyphs" textLength="92">with manifest.</text><text x="72.5" y="142.629" fill="#000" font-family="sans-serif" font-size="13" lengthAdjust="spacingAndGlyphs" textLength="24">yml</text><polygon fill="#A80036" points="698.5 203.094 708.5 207.094 698.5 211.094 702.5 207.094" style="stroke:#a80036;stroke-width:1"/><line style="stroke:#a80036;stroke-width:1" x1="591.5" x2="704.5" y1="207.094" y2="207.094"/><text x="598.5" y="171.762" fill="#000" font-family="sans-serif" font-size="13" lengthAdjust="spacingAndGlyphs" textLength="86">Pull buildpack</text><text x="598.5" y="186.895" fill="#000" font-family="sans-serif" font-size="13" lengthAdjust="spacingAndGlyphs" textLength="91">contents from</text><text x="598.5" y="202.028" fill="#000" font-family="sans-serif" font-size="13" lengthAdjust="spacingAndGlyphs" textLength="42">Github</text><polygon fill="#A80036" points="602.5 292.758 592.5 296.758 602.5 300.758 598.5 296.758" style="stroke:#a80036;stroke-width:1"/><line style="stroke:#a80036;stroke-width:1" x1="596.5" x2="709.5" y1="296.758" y2="296.758"/><text x="608.5" y="231.161" fill="#000" font-family="sans-serif" font-size="13" lengthAdjust="spacingAndGlyphs" textLength="60">Buildpack</text><text x="608.5" y="246.293" fill="#000" font-family="sans-serif" font-size="13" lengthAdjust="spacingAndGlyphs" textLength="84">configuration</text><text x="608.5" y="261.426" fill="#000" font-family="sans-serif" font-size="13" lengthAdjust="spacingAndGlyphs" textLength="24">and</text><text x="608.5" y="276.559" fill="#000" font-family="sans-serif" font-size="13" lengthAdjust="spacingAndGlyphs" textLength="78">executables</text><text x="608.5" y="291.692" fill="#000" font-family="sans-serif" font-size="13" lengthAdjust="spacingAndGlyphs" textLength="87">staged in app</text><polygon fill="#A80036" points="984.5 382.422 994.5 386.422 984.5 390.422 988.5 386.422" style="stroke:#a80036;stroke-width:1"/><line style="stroke:#a80036;stroke-width:1" x1="591.5" x2="990.5" y1="386.422" y2="386.422"/><text x="598.5" y="320.825" fill="#000" font-family="sans-serif" font-size="13" lengthAdjust="spacingAndGlyphs" textLength="59">Scan app</text><text x="598.5" y="335.957" fill="#000" font-family="sans-serif" font-size="13" lengthAdjust="spacingAndGlyphs" textLength="82">instance and</text><text x="598.5" y="351.09" fill="#000" font-family="sans-serif" font-size="13" lengthAdjust="spacingAndGlyphs" textLength="81">POST to vuls</text><text x="598.5" y="366.223" fill="#000" font-family="sans-serif" font-size="13" lengthAdjust="spacingAndGlyphs" textLength="72">server with</text><text x="598.5" y="381.356" fill="#000" font-family="sans-serif" font-size="13" lengthAdjust="spacingAndGlyphs" textLength="57">HTTP API</text><polygon fill="#A80036" points="1162.5 487.219 1172.5 491.219 1162.5 495.219 1166.5 491.219" style="stroke:#a80036;stroke-width:1"/><line style="stroke:#a80036;stroke-width:1" x1="996.5" x2="1168.5" y1="491.219" y2="491.219"/><text x="1003.5" y="410.489" fill="#000" font-family="sans-serif" font-size="13" lengthAdjust="spacingAndGlyphs" textLength="51">Analyze</text><text x="1003.5" y="425.622" fill="#000" font-family="sans-serif" font-size="13" lengthAdjust="spacingAndGlyphs" textLength="89">dependencies</text><text x="1003.5" y="440.754" fill="#000" font-family="sans-serif" font-size="13" lengthAdjust="spacingAndGlyphs" textLength="18">for</text><text x="1003.5" y="455.887" fill="#000" font-family="sans-serif" font-size="13" lengthAdjust="spacingAndGlyphs" textLength="88">vulnerabilities</text><text x="1003.5" y="471.02" fill="#000" font-family="sans-serif" font-size="13" lengthAdjust="spacingAndGlyphs" textLength="59">and save</text><text x="1003.5" y="486.153" fill="#000" font-family="sans-serif" font-size="13" lengthAdjust="spacingAndGlyphs" textLength="91">analysis to DB</text><polygon fill="#A80036" points="1007.5 546.617 997.5 550.617 1007.5 554.617 1003.5 550.617" style="stroke:#a80036;stroke-width:1"/><line style="stroke:#a80036;stroke-width:1" x1="1001.5" x2="1173.5" y1="550.617" y2="550.617"/><text x="1013.5" y="515.286" fill="#000" font-family="sans-serif" font-size="13" lengthAdjust="spacingAndGlyphs" textLength="73">Enrich scan</text><text x="1013.5" y="530.418" fill="#000" font-family="sans-serif" font-size="13" lengthAdjust="spacingAndGlyphs" textLength="91">data with vuln</text><text x="1013.5" y="545.551" fill="#000" font-family="sans-serif" font-size="13" lengthAdjust="spacingAndGlyphs" textLength="76">annotations</text><polygon fill="#A80036" points="602.5 621.148 592.5 625.148 602.5 629.148 598.5 625.148" style="stroke:#a80036;stroke-width:1"/><line style="stroke:#a80036;stroke-width:1" x1="596.5" x2="995.5" y1="625.148" y2="625.148"/><text x="608.5" y="574.684" fill="#000" font-family="sans-serif" font-size="13" lengthAdjust="spacingAndGlyphs" textLength="96">Scan data sent</text><text x="608.5" y="589.817" fill="#000" font-family="sans-serif" font-size="13" lengthAdjust="spacingAndGlyphs" textLength="78">in response,</text><text x="608.5" y="604.95" fill="#000" font-family="sans-serif" font-size="13" lengthAdjust="spacingAndGlyphs" textLength="97">annotated with</text><text x="608.5" y="620.082" fill="#000" font-family="sans-serif" font-size="13" lengthAdjust="spacingAndGlyphs" textLength="52">analysis</text><polygon fill="#A80036" points="76.5 695.68 66.5 699.68 76.5 703.68 72.5 699.68" style="stroke:#a80036;stroke-width:1"/><line style="stroke:#a80036;stroke-width:1" x1="70.5" x2="590.5" y1="699.68" y2="699.68"/><text x="82.5" y="649.215" fill="#000" font-family="sans-serif" font-size="13" lengthAdjust="spacingAndGlyphs" textLength="35">Show</text><text x="82.5" y="664.348" fill="#000" font-family="sans-serif" font-size="13" lengthAdjust="spacingAndGlyphs" textLength="77">deployment</text><text x="82.5" y="679.481" fill="#000" font-family="sans-serif" font-size="13" lengthAdjust="spacingAndGlyphs" textLength="57">with vuls</text><text x="82.5" y="694.614" fill="#000" font-family="sans-serif" font-size="13" lengthAdjust="spacingAndGlyphs" textLength="60">buildpack</text><polygon fill="#A80036" points="816 770.211 826 774.211 816 778.211 820 774.211" style="stroke:#a80036;stroke-width:1"/><line style="stroke:#a80036;stroke-width:1" x1="65.5" x2="822" y1="774.211" y2="774.211"/><text x="72.5" y="723.747" fill="#000" font-family="sans-serif" font-size="13" lengthAdjust="spacingAndGlyphs" textLength="61">Read app</text><text x="72.5" y="738.879" fill="#000" font-family="sans-serif" font-size="13" lengthAdjust="spacingAndGlyphs" textLength="98">instance status</text><text x="72.5" y="754.012" fill="#000" font-family="sans-serif" font-size="13" lengthAdjust="spacingAndGlyphs" textLength="74">from report</text><text x="72.5" y="769.145" fill="#000" font-family="sans-serif" font-size="13" lengthAdjust="spacingAndGlyphs" textLength="57">server UI</text><polygon fill="#A80036" points="839 844.742 829 848.742 839 852.742 835 848.742" style="stroke:#a80036;stroke-width:1"/><line style="stroke:#a80036;stroke-width:1" x1="833" x2="1284.5" y1="848.742" y2="848.742"/><text x="845" y="798.278" fill="#000" font-family="sans-serif" font-size="13" lengthAdjust="spacingAndGlyphs" textLength="61">Read app</text><text x="845" y="813.411" fill="#000" font-family="sans-serif" font-size="13" lengthAdjust="spacingAndGlyphs" textLength="98">instance status</text><text x="845" y="828.543" fill="#000" font-family="sans-serif" font-size="13" lengthAdjust="spacingAndGlyphs" textLength="74">from report</text><text x="845" y="843.676" fill="#000" font-family="sans-serif" font-size="13" lengthAdjust="spacingAndGlyphs" textLength="57">server UI</text><polygon fill="#A80036" points="816 919.273 826 923.273 816 927.273 820 923.273" style="stroke:#a80036;stroke-width:1"/><line style="stroke:#a80036;stroke-width:1" x1="477" x2="822" y1="923.273" y2="923.273"/><text x="484" y="872.809" fill="#000" font-family="sans-serif" font-size="13" lengthAdjust="spacingAndGlyphs" textLength="61">Read app</text><text x="484" y="887.942" fill="#000" font-family="sans-serif" font-size="13" lengthAdjust="spacingAndGlyphs" textLength="98">instance status</text><text x="484" y="903.075" fill="#000" font-family="sans-serif" font-size="13" lengthAdjust="spacingAndGlyphs" textLength="74">from report</text><text x="484" y="918.207" fill="#000" font-family="sans-serif" font-size="13" lengthAdjust="spacingAndGlyphs" textLength="57">server UI</text><polygon fill="#A80036" points="816 993.805 826 997.805 816 1001.805 820 997.805" style="stroke:#a80036;stroke-width:1"/><line style="stroke:#a80036;stroke-width:1" x1="347.5" x2="822" y1="997.805" y2="997.805"/><text x="354.5" y="947.34" fill="#000" font-family="sans-serif" font-size="13" lengthAdjust="spacingAndGlyphs" textLength="61">Read app</text><text x="354.5" y="962.473" fill="#000" font-family="sans-serif" font-size="13" lengthAdjust="spacingAndGlyphs" textLength="98">instance status</text><text x="354.5" y="977.606" fill="#000" font-family="sans-serif" font-size="13" lengthAdjust="spacingAndGlyphs" textLength="74">from report</text><text x="354.5" y="992.739" fill="#000" font-family="sans-serif" font-size="13" lengthAdjust="spacingAndGlyphs" textLength="57">server UI</text></g></svg>